<svg width="50" height="49" viewBox="0 0 50 49" fill="none" xmlns="http://www.w3.org/2000/svg">
<path d="M47.2722 9.9044C46.9409 9.45813 46.3819 8.92075 45.7933 8.71276C45.6571 8.61298 45.5247 8.53187 45.4029 8.48245C43.2486 -0.075653 31.6988 -2.37582 25.7113 4.33679C23.2857 0.829196 17.9777 -0.608358 13.8312 1.2835C9.7096 3.1585 6.9878 7.74246 7.05843 12.69C7.11487 17.0189 10.265 21.799 13.2736 24.9252C12.8065 27.6936 12.9416 27.0968 12.6642 28.4557C12.6112 28.7094 12.559 28.9662 12.5101 29.2239C10.7868 28.4405 9.73368 25.6721 9.07871 23.9529C8.02622 21.2312 7.50279 17.2631 7.14592 14.3515C6.67509 10.4995 6.70822 11.4742 6.66513 10.4554C6.62099 9.45933 6.55517 7.95436 5.32871 7.55223C4.66581 7.3343 4.01295 7.49844 3.46846 8.20925C2.81545 8.45285 2.22259 9.13019 1.88733 9.67108C1.34484 10.5463 1.09797 11.5695 0.904133 12.5808C-1.60907 25.6929 3.59505 39.2554 14.5148 47.2817C15.2293 47.8068 15.7984 48.0629 16.7147 48.3084C19.0809 50.0221 24.5301 46.2887 23.0754 42.6017C22.6243 41.4515 22.3418 39.9393 22.0689 38.4769C21.4485 35.1582 21.2727 34.7777 20.307 32.8776C19.7835 31.8487 19.2895 30.8655 19.1518 29.7056C20.9696 30.8702 22.9139 31.8892 25.0788 32.7861C25.1543 32.8174 25.2345 32.8326 25.3148 32.8326C25.715 32.8326 29.1014 31.401 32.4906 29.1509C32.5619 30.3527 32.4406 31.0685 32.2337 31.8173C31.279 34.7589 31.0256 34.0481 30.443 38.5539C30.2656 39.9257 30.0818 41.3432 29.7294 42.4308C29.1948 44.0385 30.585 45.7521 31.9383 46.7314C33.0965 47.5714 34.2082 47.7626 35.3356 47.5515C36.5219 47.5052 37.7674 46.9449 38.6752 46.132C48.0953 37.7916 51.9394 24.7231 48.4469 12.5364C48.1738 11.6074 47.8549 10.6786 47.2722 9.9044ZM21.9284 43.0528C22.9792 45.7162 18.4661 48.4781 17.2842 47.1753C14.213 43.7418 10.2366 39.4661 7.63634 35.1732C0.938498 24.2246 3.59661 12.5929 3.52595 12.1498C3.6533 11.2695 4.09759 8.4384 4.94264 8.7233C5.51924 8.91255 5.37154 10.5724 5.49968 11.3576C6.0561 14.8716 6.41191 20.4737 7.92771 24.3943C8.68862 26.3929 9.92953 29.6541 12.3303 30.4776C12.2821 31.0347 12.2861 31.6005 12.3856 32.1761C12.4442 32.5124 12.7701 32.7315 13.0984 32.6785C13.4339 32.6199 13.6587 32.3013 13.6009 31.9658C13.4179 30.9095 13.6378 29.8379 13.8714 28.7038C14.5776 25.2611 14.9435 21.1869 15.4309 20.3217C15.6107 20.011 15.9502 19.7004 16.3066 19.7004C16.3916 19.7294 16.7353 19.6621 17.2521 20.2855C19.0681 22.5008 17.9878 26.0019 17.8935 28.5802C17.7927 30.5151 18.3281 31.7055 19.2074 33.4362C21.0403 37.0426 20.7473 40.0425 21.9284 43.0528ZM25.3212 31.5508C23.0541 30.5968 21.0306 29.5122 19.1526 28.246C19.3425 25.2977 20.2665 22.0177 18.2033 19.5013C16.935 17.9727 15.2169 18.2274 14.3602 19.7108C13.9286 20.4774 13.8565 21.289 13.519 23.3798C10.9738 20.5271 8.33947 16.3349 8.29131 12.6732C8.2287 8.27702 10.7169 4.05506 14.3425 2.40561C18.2145 0.638164 23.2383 2.17043 25.0893 5.68365C25.2903 6.06592 25.8387 6.1442 26.1239 5.77114C31.2088 -0.876575 42.0447 0.877424 44.1499 8.62382C43.1287 9.3422 42.9076 11.4152 42.8969 11.527C42.7609 13.0899 43.0882 14.1183 43.1012 16.7759C41.875 19.3562 39.8721 21.8949 37.5133 23.8872C37.2687 22.6541 37.1055 21.4236 36.3874 20.4854C34.865 18.4969 31.9171 19.212 31.7481 22.5153C31.6631 24.2722 32.0536 25.8136 32.3404 27.7638C29.9196 29.4168 27.7867 30.5706 25.3212 31.5508ZM42.9554 19.5578C42.6341 22.5163 41.7732 25.0388 40.3686 27.0712C40.078 27.4998 39.6767 28.0319 39.1429 28.3442C38.8291 28.5312 38.6445 28.6115 38.3965 28.6275C38.2095 27.433 37.9923 26.3039 37.7844 25.257C39.7956 23.6575 41.594 21.6716 42.9554 19.5578ZM30.9013 42.816C31.5566 40.7891 31.6492 38.0034 32.0828 36.036C32.2545 35.2494 32.5467 34.4965 32.8557 33.6995C32.9918 33.3498 33.3564 32.4118 33.4505 32.0452L32.8533 31.8935L33.4794 31.9433C34.3603 28.5522 32.8296 25.6592 32.9793 22.5763C33.0219 21.7456 33.3919 20.7832 34.1055 20.6339C34.5333 20.5432 35.0679 20.7896 35.4082 21.2351C35.7862 21.7279 35.9572 22.3893 36.0864 23.033C36.6653 25.8729 37.2068 28.5614 37.4702 30.9994C37.5071 31.3381 37.8202 31.5829 38.15 31.546C38.488 31.509 38.7328 31.2048 38.6967 30.8661C38.6589 30.525 38.618 30.1863 38.5738 29.85C38.9768 29.8098 39.3187 29.6742 39.7698 29.4061C40.5131 28.9711 41.026 28.2992 41.3863 27.7679C45.6784 21.5527 43.9398 13.7718 44.1242 11.6409C44.2318 10.5534 44.7117 9.61184 44.8955 9.61023C44.8964 9.61023 44.9967 9.61906 45.1829 9.79805C45.1845 9.79966 45.1861 9.80126 45.1877 9.80287C45.2251 9.88522 45.8281 10.1333 46.4551 13.0512C48.1113 22.6027 47.3576 29.1983 41.3759 39.4104C40.0868 41.6201 38.2688 44.3868 35.6072 46.2321C34.5037 46.5795 33.5471 46.3743 32.6615 45.7329C31.6012 44.9655 30.5979 43.727 30.9013 42.816Z" fill="#1A685B"/>
</svg>
